<svg xmlns="http://www.w3.org/2000/svg" xmlns:xlink="http://www.w3.org/1999/xlink" viewBox="0 0 130.035 130"><defs><radialGradient id="radial-gradient" cx="-1079.254" cy="460.268" r="65.506" gradientTransform="matrix(0, -1.967, -1.83, 0, 876.751, -1982.717)" gradientUnits="userSpaceOnUse"><stop offset="0" stop-color="#fd5"></stop><stop offset="0.1" stop-color="#fd5"></stop><stop offset="0.5" stop-color="#ff543e"></stop><stop offset="1" stop-color="#c837ab"></stop></radialGradient><radialGradient id="radial-gradient-2" cx="-1277.482" cy="1496.286" r="65.506" gradientTransform="matrix(0.173, 0.862, 3.554, -0.712, -5119.759, 2175.582)" gradientUnits="userSpaceOnUse"><stop offset="0" stop-color="#3771c8"></stop><stop offset="0.128" stop-color="#3771c8"></stop><stop offset="1" stop-color="#60f" stop-opacity="0"></stop></radialGradient></defs><g id="Layer_2"><g id="Layer_1-2"><path d="M65.039,0C37.9,0,29.956.028,28.413.156,22.842.619,19.376,1.5,15.6,3.376A25.96,25.96,0,0,0,8.129,8.845,27.91,27.91,0,0,0,.6,24.658C.158,27.7.03,28.318,0,43.848c-.01,5.176,0,11.989,0,21.127,0,27.122.03,35.052.16,36.593.45,5.42,1.3,8.83,3.1,12.561a27.391,27.391,0,0,0,17.751,14.5,46.137,46.137,0,0,0,9.441,1.25c1.61.07,18.022.12,34.443.12s32.843-.02,34.413-.1a44.434,44.434,0,0,0,9.781-1.28,27.224,27.224,0,0,0,17.751-14.531,32.128,32.128,0,0,0,3.065-12.318c.088-1.12.125-18.979.125-36.814s-.04-35.663-.128-36.783a31.768,31.768,0,0,0-3.127-12.441,25.767,25.767,0,0,0-5.565-7.624A28.07,28.07,0,0,0,105.384.6C102.347.157,101.742.027,86.2,0Z" style="fill:url(#radial-gradient)"></path><path d="M65.039,0C37.9,0,29.956.028,28.413.156,22.842.619,19.376,1.5,15.6,3.376A25.96,25.96,0,0,0,8.129,8.845,27.91,27.91,0,0,0,.6,24.658C.158,27.7.03,28.318,0,43.848c-.01,5.176,0,11.989,0,21.127,0,27.122.03,35.052.16,36.593.45,5.42,1.3,8.83,3.1,12.561a27.391,27.391,0,0,0,17.751,14.5,46.137,46.137,0,0,0,9.441,1.25c1.61.07,18.022.12,34.443.12s32.843-.02,34.413-.1a44.434,44.434,0,0,0,9.781-1.28,27.224,27.224,0,0,0,17.751-14.531,32.128,32.128,0,0,0,3.065-12.318c.088-1.12.125-18.979.125-36.814s-.04-35.663-.128-36.783a31.768,31.768,0,0,0-3.127-12.441,25.767,25.767,0,0,0-5.565-7.624A28.07,28.07,0,0,0,105.384.6C102.347.157,101.742.027,86.2,0Z" style="fill:url(#radial-gradient-2)"></path><path d="M65.009,17c-13.037,0-14.673.057-19.794.29a35.234,35.234,0,0,0-11.651,2.231A24.557,24.557,0,0,0,19.52,33.56a35.063,35.063,0,0,0-2.23,11.651c-.229,5.12-.289,6.757-.289,19.8s.058,14.668.29,19.788a35.277,35.277,0,0,0,2.23,11.651,24.567,24.567,0,0,0,14.037,14.044,35.263,35.263,0,0,0,11.653,2.231c5.121.233,6.756.29,19.792.29s14.669-.057,19.79-.29a35.285,35.285,0,0,0,11.657-2.231,24.6,24.6,0,0,0,14.038-14.043,35.58,35.58,0,0,0,2.23-11.651c.23-5.12.29-6.752.29-19.789s-.06-14.674-.29-19.794a35.563,35.563,0,0,0-2.23-11.651A24.561,24.561,0,0,0,96.447,19.522a35.344,35.344,0,0,0-11.661-2.231c-5.121-.233-6.751-.29-19.792-.29ZM60.7,25.652c1.278,0,2.7,0,4.306,0,12.817,0,14.336.046,19.4.276a26.575,26.575,0,0,1,8.912,1.653,15.908,15.908,0,0,1,9.109,9.111,26.523,26.523,0,0,1,1.653,8.911c.23,5.06.28,6.58.28,19.391s-.05,14.332-.28,19.392a26.549,26.549,0,0,1-1.653,8.911,15.921,15.921,0,0,1-9.109,9.105,26.478,26.478,0,0,1-8.912,1.654c-5.061.23-6.581.28-19.4.28s-14.337-.05-19.4-.28A26.626,26.626,0,0,1,36.7,102.4a15.906,15.906,0,0,1-9.113-9.108,26.523,26.523,0,0,1-1.653-8.911c-.23-5.06-.276-6.58-.276-19.4s.046-14.331.276-19.391a26.576,26.576,0,0,1,1.653-8.913A15.911,15.911,0,0,1,36.7,27.565a26.516,26.516,0,0,1,8.913-1.655c4.429-.2,6.145-.26,15.092-.27Zm29.93,7.971a5.76,5.76,0,1,0,5.761,5.758,5.759,5.759,0,0,0-5.761-5.758Zm-25.624,6.73A24.65,24.65,0,1,0,89.657,65.006,24.653,24.653,0,0,0,65.009,40.353Zm0,8.651a16,16,0,1,1-16,16A16,16,0,0,1,65.009,49Z" style="fill:#fff"></path></g></g></svg>