<svg xmlns="http://www.w3.org/2000/svg" x="0px" y="0px" width="1000px" height="1000px" viewBox="0 0 1000 1000" enable-background="new 0 0 1000 1000" xml:space="preserve">
<g id="g69">
	<path d="M1000,750c0,138.068-111.932,250-250,250H250C111.929,1000,0,888.068,0,750V250C0,111.929,111.929,0,250,0h500   c138.068,0,250,111.929,250,250V750z" id="path44"></path>
	<radialGradient id="SVGID_1_" cx="500" cy="500" r="500" gradientUnits="userSpaceOnUse">
		<stop offset="0" style="stop-color:#FF004F;stop-opacity:0.2" id="stop46"></stop>
		<stop offset="1" style="stop-color:#FF004F;stop-opacity:0.1" id="stop48"></stop>
	</radialGradient>
	<path fill="url(#SVGID_1_)" d="M1000,750c0,138.068-111.932,250-250,250H250C111.929,1000,0,888.068,0,750V250   C0,111.929,111.929,0,250,0h500c138.068,0,250,111.929,250,250V750z" id="path51"></path>
	<g id="g67">
		<path fill="#25F4EE" d="M 433.07,431.29592 432.958,400.494 c -9.142,-1.214 -18.436,-1.976 -28.041,-1.976 -114.412,-0.157 -207.51,93.015 -207.51,207.696 0,70.287 35.041,132.498 88.678,170.166 -7.69592,-28.07997 -52.9159,-86.59754 -52.9159,-141.18254 0,-112.998 87.7659,-201.30654 199.9009,-203.90154 z" id="path53"></path>
		<path fill="#25F4EE" d="m 439.30841,731.66437 c 58.26631,-3.65321 94.17061,-41.8556 95.44345,-93.00089 l 0.70496,-449.96766 c 26.60939,-0.91827 80.45285,-0.15345 79.82818,-2.75482 -1.676,-9.3 -2.595,-18.908 -2.595,-28.664 H 499.945 l -0.154,452.431 c -1.834,50.64 -43.576,91.334 -94.617,91.334 -15.847,0 -30.778,-3.957 -44.035,-10.973 -0.19431,13.83953 46.26349,43.59583 78.16941,41.59537 z" id="path55"></path>
		<path fill="#25F4EE" d="M 769.673,339.506 V 314.35 c -31.546,0 -60.778,-9.3 -85.476,-25.467 9.82642,37.28658 56.95461,69.95007 85.476,50.623 z" id="path57"></path>
		<path fill="#FE2C55" d="M 684.217,288.889 C 660.144,261.288 645.662,225.3 645.662,185.958 l -32.43618,-0.017 c 7.762,43.001 27.54536,98.79724 70.99118,102.948 z" id="path59"></path>
		<path fill="#FE2C55" d="m 405.039,511.205 c -52.259,0 -94.769,42.538 -94.769,94.854 0,36.429 25.89371,91.42218 50.884,84.011 -11.272,-15.562 -17.973,-34.617 -17.973,-55.344 0,-52.304 42.503,-94.854 94.765,-94.854 9.753,0 19.2,1.683 28.038,4.407 V 429.006 c -9.146,-1.217 -18.439,-1.979 -28.038,-1.979 -1.677,0 -3.196,0.154 -4.876,0.154 l -3.30579,84.85573 c -8.991,-2.73 -14.97621,-0.83173 -24.72521,-0.83173 z" id="path61"></path>
		<path fill="#FE2C55" d="m 769.673,339.506 -3.79747,85.46681 c -58.491,0 -109.8939,-20.97219 -154.0709,-52.68819 l -2.8481,233.92938 c -1.39412,114.50651 -86.76488,204.9929 -201.34388,204.9929 -44.176,0 -102.80192,-32.78641 -121.51765,-34.8269 37.935,40.72 92.022,66.342 151.9,66.342 114.431,0 207.667,-93.172 207.667,-207.841 V 405.383 c 44.189,31.716 98.421,50.473 156.931,50.473 V 343.018 c -11.43,0 -22.397,-1.221 -32.92,-3.512 z" id="path63"></path>
		<path fill="#FFFFFF" d="M612.78,606.214V376.722c44.183,31.716,98.427,50.476,156.925,50.476v-87.682    c-33.827-7.167-63.516-25.467-85.476-50.627c-35.343-23.026-60.771-59.93-68.854-102.931h-82.584l-0.154,452.431    c-1.831,50.627-43.569,91.348-94.611,91.348c-31.693,0-59.576-15.715-76.946-39.5c-30.167-16.004-50.89-47.581-50.89-84.022    c0-52.298,42.513-94.854,94.771-94.854c9.753,0,19.197,1.683,28.041,4.433v-88.44c-112.145,2.441-202.644,94.543-202.644,207.529    c0,54.598,21.179,104.293,55.764,141.499c33.672,23.644,74.81,37.675,118.999,37.675    C519.531,814.055,612.78,720.729,612.78,606.214z" id="path65"></path>
	</g>
</g>
</svg>