<svg id="Dark_Blue" xmlns="http://www.w3.org/2000/svg" viewBox="0 0 400 400"><g id="Dark_Blue"><path d="M350,400H50A50.0182,50.0182,0,0,1,0,350V50A50.0182,50.0182,0,0,1,50,0H350a50.0182,50.0182,0,0,1,50,50V350A50.0182,50.0182,0,0,1,350,400Z" style="fill:#1d9bf0"></path></g><g id="Logo_FIXED"><path d="M153.6,301.6c94.3,0,145.9-78.2,145.9-145.9,0-2.2,0-4.4-.1-6.6A104.4675,104.4675,0,0,0,325,122.5a103.9263,103.9263,0,0,1-29.5,8.1,51.5915,51.5915,0,0,0,22.6-28.4,102,102,0,0,1-32.6,12.4,51.2914,51.2914,0,0,0-88.7,35.1,56.6773,56.6773,0,0,0,1.3,11.7A145.6129,145.6129,0,0,1,92.4,107.8a51.4847,51.4847,0,0,0,15.9,68.5,51.867,51.867,0,0,1-23.2-6.4v.7a51.3863,51.3863,0,0,0,41.1,50.3,51.5766,51.5766,0,0,1-23.1.9A51.2763,51.2763,0,0,0,151,257.4a102.8474,102.8474,0,0,1-63.7,22,98.6785,98.6785,0,0,1-12.2-.7,145.8623,145.8623,0,0,0,78.5,22.9" style="fill:#fff"></path></g></svg>