<svg width="512" height="512" viewBox="0 0 135.46666 135.46667" xmlns="http://www.w3.org/2000/svg" xmlns:xlink="http://www.w3.org/1999/xlink">
  <defs id="defs7479">
    <linearGradient xlink:href="#linearGradient1646" id="linearGradient1648" x1="367.20071" y1="364.91687" x2="402.55502" y2="400.27115" gradientUnits="userSpaceOnUse" gradientTransform="matrix(1.0876295,0,0,1.0876295,-317.22407,-314.74007)"></linearGradient>
    <linearGradient id="linearGradient1646">
      <stop style="stop-color:#54f7ff;stop-opacity:1" offset="0" id="stop1642"></stop>
      <stop style="stop-color:#6ca1ff;stop-opacity:1" offset="1" id="stop1644"></stop>
    </linearGradient>
  </defs>
  <g>
    <rect style="fill:url(#linearGradient1648);fill-opacity:1;stroke:none;stroke-width:0.28822;stroke-linejoin:round;stroke-miterlimit:4;stroke-dasharray:none;stroke-opacity:1" id="rect1626" width="135.46666" height="135.46666" x="0" y="0" ry="30.159018" rx="30.770063"></rect>
    <path fill="#29282e" d="m 45.254442,18.900006 c -1.063468,0.01 -2.133601,0.13002 -3.210403,0.370046 -4.343878,0.976791 -7.957665,3.593784 -10.171275,7.367593 -2.213611,3.7738 -2.830355,8.467719 -1.656875,12.554898 L 35.95661,59.63178 c -2.590326,2.797019 -4.057176,6.514159 -4.057176,10.364638 v 13.128318 c 0.513398,19.122394 15.982004,33.537534 35.984512,33.537534 8.391051,0 16.212033,-2.59032 22.616168,-7.49094 6.047425,-4.63392 10.394636,-11.141397 12.304876,-18.412316 3.63379,-1.673539 5.98075,-4.740599 7.35426,-9.567858 l 2.51698,-8.857778 c 0.93345,-3.34376 1.14014,-8.267699 -1.10347,-12.051518 -2.98371,-5.04064 -7.31425,-7.234239 -13.211659,-6.677499 -0.996792,-2.557 -3.573781,-6.394139 -8.734428,-7.414259 l 1.923573,-6.850859 c 1.260158,-3.967179 0.703422,-8.634418 -1.49352,-12.491578 -2.226945,-3.917153 -5.890739,-6.610824 -10.311294,-7.580947 -8.09768,-1.780224 -16.255369,3.267078 -18.575661,11.491447 L 60.906405,31.954984 60.64304,30.748165 C 58.642788,23.670604 52.351999,18.95668 45.50114,18.900006 h -0.243364 z m 19.862489,34.637675 5.770725,-19.992497 c 0.863442,-3.050399 3.823813,-4.963959 6.714175,-4.307219 4.350545,0.98346 4.890613,5.183979 4.270535,7.170899 L 75.104851,60.5219 C 73.828023,59.99182 72.451185,59.70512 71.057678,59.70512 H 46.477928 L 39.940443,36.405544 c -0.806768,-2.86704 0.763428,-6.407479 4.267201,-7.167579 2.910366,-0.6334 5.857401,1.25682 6.714175,4.300539 l 5.774057,20.002517 c 1.100138,3.427099 4.210529,3.333739 4.210529,3.333739 h 0.05 c 0.406718,0 3.123724,-0.12 4.16052,-3.333739 z m 14.878533,29.290335 c -1.383506,-0.30002 -2.920365,-1.3635 -3.633789,-3.12038 3.000377,-1.940239 5.080637,-5.387339 5.217321,-9.324498 0.08002,-2.26696 -0.610076,-4.447239 -1.943578,-6.280799 l 1.40351,-4.937279 c 0.696754,-2.45364 3.173731,-4.687259 6.097431,-3.99384 3.700465,0.88344 4.420555,4.37388 3.807145,6.577499 l -4.850609,17.088797 c -0.700088,2.45032 -2.820353,4.10052 -5.090637,4.10052 -0.333376,0 -0.670084,-0.0334 -1.006794,-0.11 z m 15.771977,-0.68008 c -3.120391,-0.72342 -4.073843,-3.93382 -3.540443,-5.667379 0.03334,-0.1 2.657,-9.394499 2.70034,-9.517859 0.733423,-2.023579 2.747009,-3.833819 5.400672,-3.267079 3.38043,0.71676 4.03384,4.320539 3.45377,5.967419 l -2.51365,8.851118 c -0.47672,1.6802 -2.160269,3.74712 -4.530567,3.74712 -0.310038,0 -0.633412,-0.0334 -0.966788,-0.1134 z m -53.763406,0.80344 V 69.996418 c 0,-2.9537 2.423637,-4.987299 4.940619,-4.987299 h 24.113024 c 0.93345,0 5.273993,0.59008 5.273993,5.524039 0,4.933939 -4.350545,5.527359 -5.450683,5.527359 h -13.80173 c -1.446848,0 -2.623661,1.1868 -2.623661,2.650319 0,1.46686 1.176813,2.65368 2.623661,2.65368 h 1.470184 c 3.753805,0 6.694173,3.090379 6.694173,7.034199 v 2.777019 c 0,1.46686 1.176814,2.65366 2.626995,2.65366 1.450182,0 2.623662,-1.1868 2.623662,-2.65366 v -2.777019 c 0,-2.63366 -0.75676,-5.050619 -2.07026,-7.034199 h 2.943704 c 1.453515,4.000499 4.700589,5.997419 7.510942,6.647499 4.367214,1.00678 8.351047,-1.19682 10.347965,-3.78716 1.076801,1.28018 2.456973,2.10028 4.020503,2.68368 -2.223612,11.424758 -12.391554,19.552455 -25.439858,19.552455 -17.378845,0 -25.803233,-13.791736 -25.803233,-23.509614 z" id="path5095-8" style="fill:#29282e;fill-opacity:1;stroke-width:3.33375"></path>
  </g>
</svg>