<svg xmlns="http://www.w3.org/2000/svg" viewBox="0 0 121.485 85.039"><g id="Layer_2"><g id="Layer_1-2"><path d="M118.946,13.279a15.213,15.213,0,0,0-10.74-10.74C98.732,0,60.742,0,60.742,0S22.753,0,13.279,2.539a15.213,15.213,0,0,0-10.74,10.74C0,22.753,0,42.52,0,42.52S0,62.286,2.539,71.76A15.214,15.214,0,0,0,13.279,82.5c9.474,2.538,47.463,2.538,47.463,2.538s37.99,0,47.464-2.538a15.214,15.214,0,0,0,10.74-10.741c2.539-9.474,2.539-29.24,2.539-29.24S121.485,22.753,118.946,13.279Z" style="fill:red"></path><polygon points="48.594 60.742 80.155 42.52 48.594 24.297 48.594 60.742" style="fill:#fff"></polygon></g></g></svg>